# xmcd
#
# Track frame offsets:
#	150
#	13627
#	27556
#	45935
#	63028
#	81668
#	97140
#	112580
#	130946
#	143847
#	162588
#	179863
#	196346
#	212238
#	232251
#	254752
#	277273
#
# Disc length: 3948 seconds
# Revision: 0
# Processed by: cddbd v1.5.2PL0 Copyright (c) Steve Scherf et al.
# Submitted via: dBpowerAMP V12.0
#
DISCID=080f6a11
DTITLE=The Delk Band - Music For Those That Come To Dance
DYEAR=2013
DGENRE=Country
TTITLE0=Corrina Corrina
TTITLE1=Sugar Moon
TTITLE2=Swingin' Doors
TTITLE3=Marie
TTITLE4=Lily Dale
TTITLE5=Redskin Rag
TTITLE6=Bandy The Rodeo Clown
TTITLE7=San Antonio Rose
TTITLE8=Heart Over Mind
TTITLE9=Kentucky Waltz
TTITLE10=Time Changes Everything
TTITLE11=Deep Water
TTITLE12=Bubbles In My Beer
TTITLE13=The Kind of Love I Can't Forget
TTITLE14=Release Me
TTITLE15=Faded Love
TTITLE16=Because He Lives
EXTD=
EXTT0=
EXTT1=
EXTT2=
EXTT3=
EXTT4=
EXTT5=
EXTT6=
EXTT7=
EXTT8=
EXTT9=
EXTT10=
EXTT11=
EXTT12=
EXTT13=
EXTT14=
EXTT15=
EXTT16=
PLAYORDER=
